<svg version="1.1" xmlns="http://www.w3.org/2000/svg" xmlns:xlink="http://www.w3.org/1999/xlink" x="0px" y="0px"
	 width="329.34px" height="120.37px" viewBox="0 0 329.34 120.37"
	 style="overflow:visible;enable-background:new 0 0 329.34 120.37;" xml:space="preserve">
<style type="text/css">
	.st0{fill:#CD892B;}
	.st1{fill:#F7941D;}
	.st2{fill:#4B2E77;}
	.st3{fill:#7F3F98;}
	.st4{fill:#8DC63F;}
	.st5{fill:#F15A29;}
	.st6{fill:#D7DF23;}
	.st7{fill:#27AAE1;}
	.st8{fill:#EC008C;}
	.st9{fill:#C2B59B;}
</style>
<defs>
</defs>
<g>
	<g>
		<g>
			<g>
				<path class="st0" d="M88.57,42.37V31.81H78c-7.8,0-14.12,6.32-14.12,14.13V56.5l10.57,0C82.25,56.5,88.57,50.17,88.57,42.37"/>
			</g>
		</g>
		<g>
			<path class="st1" d="M63.88,56.5V45.93c0-7.8,6.32-14.13,14.12-14.13h10.57V14.12C88.57,6.32,82.25,0,74.45,0H46.2
				c-7.8,0-14.13,6.32-14.13,14.13v28.25c0,7.8,6.33,14.12,14.13,14.12"/>
		</g>
		<g>
			<g>
				<path class="st2" d="M56.5,74.45V63.88H45.93c-7.8,0-14.13,6.32-14.13,14.12v10.57h10.57C50.17,88.57,56.5,82.24,56.5,74.45"/>
			</g>
		</g>
		<g>
			<path class="st3" d="M46.2,56.5c-7.8,0-14.13-6.32-14.13-14.12v-10.3H14.13C6.33,32.07,0,38.4,0,46.2v28.25
				c0,7.8,6.33,14.12,14.13,14.12h17.68V78c0-7.8,6.33-14.12,14.13-14.12H56.5V56.5H46.2z"/>
		</g>
		<path class="st4" d="M31.81,106.25c0,7.8,6.33,14.12,14.13,14.12h28.25c7.8,0,14.12-6.33,14.12-14.12V78
			c0-7.8-6.32-14.12-14.12-14.12H56.5v10.57c0,7.8-6.33,14.12-14.13,14.12H31.81"/>
		<path class="st5" d="M106.25,31.8H88.57v10.57c0,7.8-6.33,14.12-14.12,14.12l-10.57,0v7.38h10.3c7.8,0,14.12,6.32,14.12,14.12
			v10.3h17.95c7.8,0,14.13-6.33,14.13-14.12V45.93C120.38,38.13,114.05,31.8,106.25,31.8z"/>
		<path class="st6" d="M99.69,27.52c0,1.26-1.02,2.28-2.28,2.28h-4.56c-1.25,0-2.27-1.02-2.27-2.28v-4.56
			c0-1.26,1.02-2.28,2.27-2.28h4.56c1.26,0,2.28,1.02,2.28,2.28V27.52z"/>
		<path class="st7" d="M30.13,29.17c0,0.53-0.43,0.96-0.96,0.96h-1.91c-0.53,0-0.96-0.43-0.96-0.96v-1.91
			c0-0.53,0.43-0.96,0.96-0.96h1.91c0.53,0,0.96,0.43,0.96,0.96V29.17z"/>
		<path class="st8" d="M29.85,100.34c0,1.8-1.46,3.26-3.26,3.26h-6.52c-1.8,0-3.26-1.46-3.26-3.26v-6.52c0-1.8,1.46-3.26,3.26-3.26
			h6.52c1.8,0,3.26,1.46,3.26,3.26V100.34z"/>
		<path class="st9" d="M97.44,95.66c0,0.99-0.81,1.8-1.8,1.8h-3.59c-0.99,0-1.8-0.8-1.8-1.8v-3.59c0-0.99,0.81-1.8,1.8-1.8h3.59
			c0.99,0,1.8,0.81,1.8,1.8V95.66z"/>
		<path class="st7" d="M150.97,65.8c-0.05,7.54-2.93,12.15-11.21,12.15c-5.04,0-10.04-2.25-10.48-7.64h3.08
			c0.69,3.72,3.97,5.05,7.4,5.05c5.68,0,8.13-3.38,8.13-9.55v-3.43h-0.1c-1.42,3.08-4.41,5.19-8.03,5.19
			c-8.08,0-11.41-5.78-11.41-12.98c0-6.96,4.11-12.73,11.41-12.73c3.67,0,6.81,2.3,8.03,5.09h0.1v-4.36h3.08V65.8z M147.89,54.93
			c0-4.95-2.3-10.48-8.13-10.48c-5.88,0-8.33,5.24-8.33,10.48c0,5.09,2.64,10.04,8.33,10.04C145.1,64.97,147.89,60.07,147.89,54.93"
			/>
		<rect x="153.42" y="32.89" class="st7" width="3.08" height="34.97"/>
		<path class="st7" d="M182.89,55.22c0,7.25-4.21,13.37-11.95,13.37c-7.74,0-11.95-6.13-11.95-13.37c0-7.25,4.21-13.37,11.95-13.37
			C178.68,41.85,182.89,47.97,182.89,55.22 M162.08,55.22c0,5.39,2.94,10.77,8.87,10.77c5.92,0,8.87-5.38,8.87-10.77
			s-2.94-10.78-8.87-10.78C165.01,44.45,162.08,49.83,162.08,55.22"/>
		<path class="st7" d="M184.72,32.89h3.09v14.5h0.09c1.32-3.62,4.99-5.53,8.77-5.53c7.69,0,11.36,6.22,11.36,13.37
			c0,7.15-3.67,13.37-11.36,13.37c-4.06,0-7.59-2.11-9.01-5.54h-0.1v4.8h-2.84V32.89z M196.67,44.45c-6.56,0-8.86,5.53-8.86,10.78
			c0,5.24,2.3,10.77,8.86,10.77c5.88,0,8.28-5.53,8.28-10.77C204.95,49.98,202.55,44.45,196.67,44.45"/>
		<path class="st7" d="M210.24,50.33c0.29-5.93,4.46-8.47,10.24-8.47c4.45,0,9.3,1.37,9.3,8.13V63.4c0,1.17,0.59,1.86,1.81,1.86
			c0.35,0,0.74-0.1,0.98-0.2v2.6c-0.69,0.15-1.17,0.2-2,0.2c-3.14,0-3.62-1.76-3.62-4.41h-0.1c-2.16,3.28-4.36,5.14-9.21,5.14
			c-4.65,0-8.48-2.3-8.48-7.4c0-7.11,6.91-7.35,13.57-8.13c2.55-0.3,3.97-0.63,3.97-3.43c0-4.16-2.99-5.19-6.61-5.19
			c-3.82,0-6.66,1.76-6.76,5.88H210.24z M226.69,54.05h-0.1c-0.39,0.74-1.76,0.98-2.59,1.13c-5.24,0.93-11.75,0.88-11.75,5.83
			c0,3.09,2.74,5,5.63,5c4.71,0,8.87-2.99,8.82-7.93V54.05z"/>
		<rect x="234" y="32.89" class="st7" width="3.09" height="34.97"/>
		<polygon class="st4" points="270.22,67.86 263.07,67.86 258.57,50.86 258.46,50.86 254.16,67.86 246.95,67.86 238.92,42.53 
			246.27,42.53 250.92,59.73 251.02,59.73 255.24,42.53 261.99,42.53 266.31,59.68 266.4,59.68 271.06,42.53 278.21,42.53 		"/>
		<path class="st4" d="M283.78,56.89c0.19,4.41,2.35,6.42,6.21,6.42c2.8,0,5.05-1.71,5.49-3.28h6.12
			c-1.96,5.97-6.12,8.53-11.85,8.53c-7.99,0-12.93-5.49-12.93-13.32c0-7.59,5.24-13.37,12.93-13.37c8.62,0,12.79,7.25,12.29,15.03
			H283.78z M295.09,52.48c-0.63-3.53-2.15-5.39-5.53-5.39c-4.4,0-5.68,3.43-5.77,5.39H295.09z"/>
		<path class="st4" d="M303.82,32.89h6.96v12.74h0.1c1.71-2.6,4.85-3.77,7.98-3.77c5.05,0,10.49,4.07,10.49,13.32
			c0,9.31-5.44,13.37-10.49,13.37c-3.72,0-6.81-1.13-8.33-3.92h-0.09v3.23h-6.61V32.89z M316.45,47.09c-4.11,0-5.93,3.87-5.93,8.13
			c0,4.21,1.81,8.08,5.93,8.08c4.11,0,5.93-3.87,5.93-8.08C322.38,50.96,320.57,47.09,316.45,47.09"/>
	</g>
</g>
</svg>
